<svg width="48" height="48" viewBox="0 0 48 48" fill="none" xmlns="http://www.w3.org/2000/svg">
<path d="M32 25.6V22.4H35.2V25.6H32Z" fill="white"/>
<path fill-rule="evenodd" clip-rule="evenodd" d="M24 1.34719L44.8 13.4816V34.5184L24 46.656L3.20001 34.5184V13.4816L24 1.34399V1.34719ZM20.2624 12.8C17.4346 12.8 14.7225 13.9234 12.723 15.9229C10.7234 17.9225 9.60001 20.6345 9.60001 23.4624V24.5376C9.60044 26.3545 10.0652 28.1412 10.9501 29.7281C11.835 31.3149 13.1107 32.6493 14.6562 33.6047C16.2017 34.56 17.9657 35.1045 19.7808 35.1866C21.5959 35.2687 23.4018 34.8855 25.0272 34.0736L26.3168 33.4336L24.8832 30.5696L23.5968 31.2096C22.4597 31.7785 21.1961 32.0473 19.9259 31.9905C18.6557 31.9337 17.4211 31.5531 16.3394 30.885C15.2576 30.2168 14.3646 29.2832 13.7452 28.1729C13.1257 27.0625 12.8004 25.8123 12.8 24.5408V23.4656C12.8002 22.1939 13.1253 20.9434 13.7445 19.8327C14.3637 18.7219 15.2565 17.7879 16.3382 17.1191C17.4198 16.4504 18.6544 16.0692 19.9248 16.0117C21.1951 15.9541 22.4591 16.2222 23.5968 16.7904L24.8832 17.4336L26.3168 14.5728L25.0272 13.9296C23.5471 13.188 21.9147 12.8013 20.2592 12.8H20.2624ZM28.8 16V19.2H25.6V22.4H28.8V25.6H25.6V28.8H28.8V32H32V28.8H35.2V32H38.4V28.8H41.6V25.6H38.4V22.4H41.6V19.2H38.4V16H35.2V19.2H32V16H28.8Z" fill="white"/>
</svg>
