<svg width="48" height="48" viewBox="0 0 48 48" fill="none" xmlns="http://www.w3.org/2000/svg">
<path d="M24 0C10.5 0 0 10.5 0 24C0 39.75 14.25 46.5 16.5 46.5C18 46.5 18 45.75 18 45V41.25C12.75 42.75 10.5 39.75 9.75 37.5C9.75 37.5 9.75 36.75 8.25 35.25C7.5 34.5 4.5 33 7.5 33C9.75 33 11.25 36 11.25 36C13.5 39 16.5 38.25 18 37.5C18 36 19.5 34.5 19.5 34.5C13.5 33.75 9 31.5 9 23.25C9 20.25 9.75 18 11.25 16.5C11.25 16.5 9.75 13.5 11.25 9.75C11.25 9.75 15 9.75 18 12.75C20.25 11.25 27.75 11.25 30 12.75C33 9.75 36.75 9.75 36.75 9.75C38.25 15 36.75 16.5 36.75 16.5C38.25 18 39 20.25 39 23.25C39 31.5 33.75 33.75 28.5 34.5C29.25 35.25 30 36.75 30 39V45C30 45.75 30 46.5 31.5 46.5C33.75 46.5 48 39.75 48 24C48 10.5 37.5 0 24 0Z" fill="white"/>
</svg>
