<svg width="48" height="48" viewBox="0 0 48 48" fill="none" xmlns="http://www.w3.org/2000/svg">
<g clip-path="url(#clip0)">
<path d="M40.89 40.9065H33.7905V29.766C33.7905 27.1095 33.735 23.6955 30.078 23.6955C26.376 23.6955 25.812 26.577 25.812 29.5695V40.905H18.7035V17.9985H25.5315V21.123H25.623C26.577 19.3185 28.8975 17.421 32.3595 17.421C39.561 17.421 40.8975 22.1625 40.8975 28.3275V40.905L40.89 40.9065ZM10.6725 14.868C10.1299 14.8682 9.59262 14.7614 9.09139 14.5536C8.59016 14.3458 8.13485 14.0412 7.75153 13.6572C7.36821 13.2732 7.06442 12.8173 6.85755 12.3157C6.65069 11.8141 6.54482 11.2766 6.546 10.734C6.54689 9.91733 6.78991 9.11925 7.24434 8.44069C7.69877 7.76212 8.3442 7.23354 9.09902 6.92176C9.85384 6.60999 10.6842 6.52903 11.485 6.68912C12.2858 6.84921 13.0212 7.24316 13.5981 7.82116C14.1751 8.39916 14.5677 9.13525 14.7263 9.93637C14.885 10.7375 14.8025 11.5677 14.4894 12.3219C14.1762 13.0762 13.6465 13.7206 12.9671 14.1738C12.2877 14.627 11.4892 14.8686 10.6725 14.868V14.868ZM14.2335 40.9065H7.11V18H14.2335V40.9065ZM44.454 0H3.54C1.5855 0 0 1.5465 0 3.4605V44.541C0 46.455 1.5855 48.0015 3.54 48.0015H44.4465C46.398 48.0015 48 46.455 48 44.541V3.4605C48 1.5465 46.398 0 44.4465 0H44.454Z" fill="white"/>
</g>
<defs>
<clipPath id="clip0">
<rect width="48" height="48" fill="white"/>
</clipPath>
</defs>
</svg>
