<svg width="48" height="48" viewBox="0 0 48 48" fill="none" xmlns="http://www.w3.org/2000/svg">
<path d="M24 3.70001C23.46 3.70001 22.9 3.84001 22.44 4.10001L7.56 12.7C6.6 13.26 6 14.3 6 15.42V32.58C6 33.7 6.6 34.74 7.56 35.3L11.46 37.54C13.36 38.46 14 38.48 14.88 38.48C17.68 38.48 19.3 36.78 19.3 33.82V16.88C19.3 16.64 19.1 16.44 18.86 16.44H17C16.74 16.44 16.54 16.64 16.54 16.88V33.82C16.54 35.14 15.18 36.44 13 35.34L8.9 33C8.83266 32.9525 8.7776 32.8896 8.73935 32.8165C8.70109 32.7435 8.68075 32.6624 8.68 32.58V15.42C8.68 15.24 8.76 15.08 8.9 15L23.78 6.42001C23.9 6.34001 24.1 6.34001 24.22 6.42001L39.1 15C39.24 15.08 39.32 15.24 39.32 15.42V32.58C39.32 32.74 39.24 32.9 39.1 33L24.22 41.58C24.1 41.66 23.9 41.66 23.76 41.58L20 39.3C19.84 39.24 19.68 39.22 19.58 39.28C18.52 39.88 18.32 40 17.34 40.3C17.1 40.38 16.72 40.52 17.48 40.94L22.44 43.88C22.92 44.16 23.44 44.3 24 44.3C24.56 44.3 25.08 44.16 25.56 43.88L40.44 35.3C41.4 34.74 42 33.7 42 32.58V15.42C42 14.3 41.4 13.26 40.44 12.7L25.56 4.10001C25.1 3.84001 24.56 3.70001 24 3.70001V3.70001ZM28 16C23.76 16 21.22 17.78 21.22 20.78C21.22 24 23.74 24.94 27.82 25.34C32.68 25.82 33.06 26.54 33.06 27.5C33.06 29.16 31.72 29.86 28.6 29.86C24.64 29.86 23.8 28.88 23.5 26.92C23.4789 26.8187 23.4238 26.7277 23.3437 26.6622C23.2636 26.5967 23.1635 26.5606 23.06 26.56H21.14C20.9 26.56 20.72 26.74 20.72 27C20.72 29.48 22.08 32.48 28.6 32.48C33.3 32.48 36 30.62 36 27.38C36 24.16 33.84 23.32 29.26 22.7C24.64 22.1 24.18 21.78 24.18 20.7C24.18 19.8 24.58 18.6 28 18.6C31 18.6 32.18 19.26 32.64 21.32C32.68 21.52 32.86 21.66 33.06 21.66H35C35.1 21.66 35.22 21.62 35.3 21.52C35.38 21.44 35.44 21.32 35.4 21.2C35.12 17.64 32.76 16 28 16Z" fill="white"/>
</svg>
