<svg width="48" height="48" viewBox="0 0 48 48" fill="none" xmlns="http://www.w3.org/2000/svg">
<path d="M17.106 5.03996C15.8385 4.95446 14.592 5.18246 13.5 5.81246C12.0435 6.65246 11.073 8.08796 10.5525 9.74246C10.032 11.3925 9.912 13.2975 10.1025 15.378C10.1205 15.588 10.158 15.8085 10.1835 16.023C9.9855 16.107 9.7755 16.185 9.5835 16.275C7.6875 17.1495 6.099 18.2055 4.9275 19.482C3.7575 20.76 3 22.317 3 24C3 25.6815 3.7575 27.24 4.9275 28.518C6.0975 29.7945 7.6875 30.8505 9.5835 31.725C9.7755 31.815 9.9855 31.893 10.1835 31.977C10.158 32.1915 10.1205 32.412 10.101 32.622C9.912 34.7025 10.032 36.606 10.5525 38.259C11.073 39.912 12.0435 41.346 13.5 42.1875C14.9565 43.0275 16.683 43.152 18.375 42.777C20.067 42.402 21.7755 41.5515 23.481 40.347C23.6535 40.227 23.826 40.0845 24 39.9555C24.1725 40.0845 24.345 40.2255 24.519 40.347C26.2245 41.5515 27.933 42.402 29.625 42.777C31.317 43.152 33.0435 43.029 34.5 42.1875C35.9565 41.3475 36.927 39.912 37.4475 38.2575C37.968 36.6075 38.088 34.7025 37.8975 32.622C37.8795 32.412 37.842 32.1915 37.8165 31.977C38.0145 31.893 38.2245 31.815 38.4165 31.725C40.3125 30.8505 41.901 29.7945 43.0725 28.518C44.2425 27.24 45 25.683 45 24C45 22.3185 44.2425 20.76 43.0725 19.482C41.9025 18.2055 40.3125 17.1495 38.4165 16.275C38.2245 16.185 38.0145 16.107 37.8165 16.023C37.842 15.8085 37.8795 15.588 37.899 15.378C38.088 13.2975 37.968 11.394 37.4475 9.74096C36.927 8.08796 35.9565 6.65396 34.5 5.81246C33.0435 4.97246 31.317 4.84796 29.625 5.22296C27.933 5.59796 26.2245 6.44846 24.519 7.65296C24.3465 7.77296 24.174 7.91546 24 8.04446C23.8275 7.91546 23.655 7.77446 23.481 7.65296C21.7755 6.44846 20.067 5.59796 18.375 5.22296C17.9573 5.12935 17.5331 5.06767 17.106 5.03846V5.03996ZM16.911 8.02796C17.166 8.04596 17.4375 8.08796 17.727 8.15396C18.861 8.40446 20.2185 9.04046 21.651 10.0365C20.3933 11.2336 19.2275 12.5238 18.1635 13.896C16.4457 14.1302 14.7479 14.4933 13.0845 14.982C12.9375 13.245 13.0635 11.751 13.4115 10.644C13.77 9.50996 14.304 8.81396 15 8.41046C15.522 8.11046 16.143 7.96946 16.9095 8.02796H16.911ZM31.0905 8.02796C31.8555 7.96946 32.478 8.11046 33 8.41046C33.696 8.81246 34.23 9.50996 34.5885 10.644C34.9365 11.751 35.0625 13.245 34.9155 14.982C33.2521 14.4933 31.5543 14.1302 29.8365 13.896C28.7725 12.5238 27.6067 11.2336 26.349 10.0365C27.7815 9.04046 29.139 8.40446 30.273 8.15396C30.5625 8.08946 30.834 8.04596 31.0905 8.02796V8.02796ZM24 11.9385C24.5265 12.426 25.053 12.9675 25.5795 13.5345C25.0532 13.5136 24.5267 13.5021 24 13.5C23.4675 13.5 22.944 13.5165 22.4205 13.5345C22.9455 12.9675 23.4735 12.426 24 11.9385ZM24 16.5C25.4475 16.5 26.85 16.5855 28.1985 16.728C29.0257 17.8606 29.7923 19.0362 30.495 20.25C31.218 21.5025 31.845 22.7595 32.397 24C31.8297 25.2827 31.1948 26.5344 30.495 27.75C29.7923 28.9637 29.0257 30.1394 28.1985 31.272C26.8485 31.4145 25.4475 31.5 24 31.5C22.5525 31.5 21.15 31.4145 19.8015 31.272C18.9743 30.1394 18.2077 28.9637 17.505 27.75C16.782 26.4975 16.155 25.2405 15.603 24C16.1535 22.7595 16.782 21.5025 17.505 20.25C18.228 18.9975 19.0035 17.8245 19.8015 16.728C21.196 16.5778 22.5975 16.5017 24 16.5V16.5ZM15.726 17.4C15.4485 17.8425 15.1725 18.288 14.907 18.75C14.6458 19.2074 14.3928 19.6695 14.148 20.136C13.923 19.4218 13.7254 18.6992 13.5555 17.97C14.241 17.7585 14.973 17.571 15.726 17.4V17.4ZM32.274 17.4C33.027 17.571 33.759 17.7585 34.4445 17.97C34.2855 18.6705 34.08 19.398 33.852 20.136C33.6072 19.6695 33.3542 19.2074 33.093 18.75C32.828 18.2951 32.555 17.8451 32.274 17.4V17.4ZM10.731 19.0545C11.115 20.652 11.6445 22.3095 12.3315 24C11.6747 25.606 11.1397 27.2591 10.731 28.9455C9.1545 28.203 7.923 27.345 7.14 26.49C6.3375 25.614 6 24.804 6 24C6 23.196 6.3375 22.386 7.14 21.51C7.923 20.655 9.1545 19.797 10.731 19.0545ZM37.269 19.0545C38.8455 19.797 40.077 20.655 40.86 21.51C41.6625 22.386 42 23.196 42 24C42 24.804 41.6625 25.614 40.86 26.49C40.077 27.345 38.8455 28.203 37.269 28.9455C36.8603 27.2591 36.3253 25.606 35.6685 24C36.3555 22.3095 36.885 20.652 37.269 19.0545ZM24 19.5C21.5325 19.5 19.5 21.5325 19.5 24C19.5 26.4675 21.5325 28.5 24 28.5C26.4675 28.5 28.5 26.4675 28.5 24C28.5 21.5325 26.4675 19.5 24 19.5ZM24 22.5C24.846 22.5 25.5 23.154 25.5 24C25.5 24.846 24.846 25.5 24 25.5C23.154 25.5 22.5 24.846 22.5 24C22.5 23.154 23.154 22.5 24 22.5ZM14.148 27.864C14.3925 28.326 14.64 28.788 14.9055 29.25C15.1725 29.712 15.4485 30.1575 15.726 30.6C14.973 30.429 14.241 30.2415 13.5555 30.03C13.7145 29.3295 13.92 28.602 14.148 27.864V27.864ZM33.852 27.864C34.08 28.602 34.287 29.3295 34.4445 30.03C33.759 30.2415 33.027 30.429 32.274 30.6C32.5515 30.1575 32.8275 29.712 33.0945 29.25C33.36 28.788 33.6075 28.326 33.852 27.864ZM13.0845 33.018C14.6595 33.483 16.359 33.855 18.1635 34.104C19.284 35.544 20.4585 36.831 21.651 37.9635C20.2185 38.9595 18.861 39.5955 17.727 39.846C16.5675 40.104 15.696 39.99 15 39.5895C14.304 39.1875 13.77 38.49 13.4115 37.356C13.0635 36.249 12.9375 34.755 13.0845 33.018V33.018ZM34.9155 33.018C35.0625 34.755 34.9365 36.249 34.5885 37.356C34.23 38.49 33.696 39.186 33 39.5895C32.304 39.99 31.4325 40.104 30.273 39.846C29.139 39.5955 27.7815 38.9595 26.349 37.9635C27.6067 36.7663 28.7725 35.4762 29.8365 34.104C31.5543 33.8697 33.2521 33.5067 34.9155 33.018V33.018ZM22.4205 34.4655C22.944 34.4835 23.4675 34.5 24 34.5C24.5325 34.5 25.056 34.4835 25.5795 34.4655C25.0545 35.0325 24.5265 35.574 24 36.0615C23.4534 35.5498 22.9265 35.0174 22.4205 34.4655Z" fill="white"/>
</svg>
